/* XPM */
static char * east_xpm[] = {
"64 64 8 1",
" 	c #0D2B45",
".	c #203C56",
"+	c #544E68",
"@	c #8D697A",
"#	c #D08159",
"$	c #FFAA5E",
"%	c #FFD4A3",
"&	c #FFECD6",
" .+@@@@@@@@@@.@+..+@@..@@@@@. .@@@@@@+++..  .   +@@++.+...+...+.",
"@@@@@@@@+@@@@+@@@@@@@@@@@@@@@@@@+@@@@@@@@@. .  +@+++.++++++++++@",
"@@@+++@+++++++++++@@@++@@@@@+@@@++++@@@@@@. . ..+@++++@@+@+++@@@",
"++++++.++++++++++++++++++++++++++++++++++@@.+..++@@@@@@@@@@@@@@@",
"++++++++++++++++++++++++++++++++++++@+@++#@.+..++@@@@@@@@@@@@@@@",
"+++++++++++++++++++++++++++++++++++++@@@@##.+..@+@@@@@@@@@@@@@@@",
"++++@.+++++++++++++++++++++++++++++++@@@@@#..+.@+@@@@@@@@@@@@@@@",
"+++@..@+++++++++++++++++++++++++++++@@@@@##....++@@@@@@@@@@@@@@@",
"+++@@...++++++++++++++++++++++++++++@@@@@@#....+@@@@+@@@@@@@@@@@",
"++++++++++++++++++++++++++++++++++++@@@@@@@.+..+@@@@@@+@@@@@@@@@",
"+++++++++++++++++++++++++++++++++++++@@@@@#.+..+#+@@@+@+@@@@@@@@",
"+++++++++++++++++++++++++++++++++++@@@@@@##.+..@#@@@@@@@@@@@@@@@",
"++++++++++++++++++++++++++++++++@@@@@@@@@##.+..+#@@@@@@@@@@@@@@@",
"+++++++++++++++++++++++++++++++@@@@@@@@@@##.+.++#@@@@@@@@+@@@@@@",
"+++++++++++++.++++++++++++@@@@@@@@@@@@+@@##.++++#@@@@@@@@@@@@@@@",
"+++...+++++.....+++.++@+++@++++++@+++++++##.++++@##@@##@@@#@@+@#",
"..................++.++++++@++++++++++++++#..++@@@@@############",
"..   ..........   .+.....+++++.++++++++++...++++@########@######",
"                   ........................+++@@@#############@#",
"                  ..................+.......++@@#@@@#@@@@@@@@@##",
" ..  ...... .   . ....@++.+....+++.+.........+++@@@#@@@@@####@@+",
"             ++   ........+..........++++@+++++.@@@@@@@++++....+",
"@@@@@@@@@@@. .+..@++..@@@@@@@@@..  .+########$$$$@+#%#@@@@@#%%$$",
"@@.@@@@@@@@@  ...+#######@#######################$%%&%%%%%&%&&&&",
"@@++@@@@@@@@  +..################@@####@#########%$%%%%%%%%%%%%%",
".++++++++++@. ...#@@@@@@########################$$$$$%$$$%%%%%%%",
"+++++++++++@@  ..#@@@@@@@##@################$$$$$$$$$$%%$%%%%%%%",
"++++++++++++@ . .#@@@@@@@@@####@@@@@@########$$$%%%%%%$%%%%%%%%&",
"++++++++++++@ .  #@@@@@@##@##@@#####@@$#$$$$$#$$$&$$$&&&&&&&&&&$",
"+++++++++++@@    ##@@@@@@@@+@@@@@@@@@@@#########$$$$$$%@@$$$$$$$",
"+++++++++++@@    @#@@@@@@@#@@@+@@@@@@@@########$$$$$$$$%%@$$$$$$",
"++++++++++++@    +#@@@@@@@#++#++@@@@@@@@#######$$$$$$$$$$$$$$$$$",
"++++++++++++@    +#@@@@@@@@@@@@@@@@@@@@@######$$$$$$$$$$$$$$$$$$",
"+++++++++++@@  . @@@@@@@@@@@@@@@@@@@@@@#######$$$$$$$$$$$$$$$$$$",
"+++++++++++@@    @@+@+@@@@@@@@@@@@@@@@@@@#@@###$$$$$$$$$$$$$$$$$",
"++++..+++++@@    @@++@+@@@@@@@@@@@@@@@@@@@#######$$$$$$$$$$$$$$$",
"++++++....@@. .  @.....++@@@@@+++++++@@@@####$$$$####$$$##$$$#$$",
".+.........@  .   ......+.+++++++++++++++@@@@##################$",
".........         ..  .....++++..+.++++++++@@###@@@#@##########@",
"            .             ...................+++++++@@@@@@@@@@@@",
"           ...             ....................++++++@@@@@@@@@@.",
"   ...    ...... .......+ .+...++..+++..+++++.....++++++@@+++++.",
"     ....    ..    .       .........+++...........+++++++++++++.",
"@@@@@@@@@@@@@@@@@@@@@@@@.  +..+@#$$$$$$$$$$$@+@$$$$@@++++++++@$.",
"@@@@@@@.  @@+@+@@+@@@@@@@.  +.+#$$$$$#$$$#$$$@$$$$$$$@+@$$$$$$$#",
"@@@+++++++++++++++++@+@@@@ +..#$#$$############$$###$$$$$##$#$$#",
"++++.+++++++++++++++++++@+ +..#$################################",
"+++++++++++++++++++++++++@  ..$################################@",
"++++++.++++++++++++++++++@ ...$#################################",
"++++@..+++++++++++++++++@@ ...$########@@##$@###################",
"...+@@++++++++++++++++++@@ ...$$#######$+@##$###################",
"@@+++++++++++++++++++++++@  ..#$#######@$#######################",
"++++++++.+++++++++++++++@@ +..@$################################",
"++++++++@++++++++++++++++@ ...#$################################",
"+++++++++++++++++++++++++@ ...##################################",
"++++++++++++++++++++++++@@ ...$$################################",
"++++++++++++++++++++..++@@   .$$##@#############################",
"++..+...++++++++++.......@   .$@@@@###########@@@@######@@@@####",
".........+......+........  . .@@@@@@@@@@@@@@@###@@@@#@@@@@@@@@@#",
".... ...................  .. .++++@@@@@++@@@@@@@@@@@@@@@+++++++@",
"                          .  ....+++++++.............+++++++++++",
"                        ....                       ..+++++++@++.",
"... ..        ....  ...  . ..           ...+  ....  +++@@++@+++.",
"      . .                                  .+   ................"};
