/* XPM */
static char * west_xpm[] = {
"64 64 6 1",
" 	c None",
".	c #709C5A",
"+	c #4A6C5C",
"@	c #0D2B45",
"#	c #204356",
"$	c #D0BF59",
"                                                                ",
"...++........@@+@@.......++..+...++++...+++++++....+............",
".+++++++++++.#@#@@.+++++++++++++++++++++++++++++++++++++++++++++",
"++++++++++++..@@@@.++++@++++++++++++++++++++++++++++++++++++++++",
"+++++##++++++.@#@@.++++##++++++++##+++++++++++++++++++++++++++++",
"+++++++#+++++.@#@@.+++++++++++++++++++++++++++++++++++++++++++++",
"+++++++++++++.@@@@..+++++++++++++++++##+++++++++++++++++++++++++",
"+++++++++#++..@@@@..+++++++++++++++++++++++###++++++++++++++++++",
"+++++++++#@@+.@@@@+.+++++++++++++++++++++++++#++++++#+++++++++++",
"+++++++++++++.@@@@+.++++++++++++++++++++++++++++++++#+++++++++++",
"++++++#+++++..@@#@..+++++++++++++++++++++++++#++++++++++++++++++",
"++++++#+++++..@@@@..++#+++++++++++++++++++++#+++++#+++++++++++++",
"+++++##+++++..@@@@..+++#++++++++++++++++++++++++++++++++++++++++",
"+++++++###@..#@#@@.#######+++++#######++++++++++++####+++##+++#+",
"+#+#########.@@#@@@######+################++####################",
"##########@@@@@@@@@##@@####@####@@#@#############@@@#@##########",
"#@@@@@@@@@@@@#@@@@@@@@@@@@@@@@@@@@@@@@@@@@@@@@@@@@@@@@@@@@@@@@@@",
"@@@@@@@@@@@@###@@@@@@@@@@@@@@@@@@@@@@@@@@@@@@@@@@@@@@@@@@@@@@@@@",
"@@@@###@@@@######@#######+@#+@@@##@@###@@#####@@@@@@@@@@@##@@@@@",
"@@@@@@####@@@@##@@@@#@@@@@@@##@@@@@@@###@@@@@@@@@@@@@@@@@@@@@@@@",
"@........................#@@+#@@#+...........#@#....##@@@@@@@@#.",
"........#@@..+.+..+.......#@@#@#+.....+...+...#.......#@#.......",
"....+++++++++++++++++.+....@+@@+.+..++++++++++++..+++.....++.+..",
".++++++++++++++++++++++++.+@+@@+.+++++++++++++++++++++++++++++++",
"++++++++++++++++++++++++++.@@@@.+++++++++++++++++++++#++++++++++",
"++++++++++++++++++++++++++.@#@@.++++++++++++++++++++++##++++++++",
"+++++++++++++++++++++++++..@#@@.+++++++#++++++++++++++++++++++++",
"+##++++++++++++++++++++++..@#@@..++++++#++++++++++++++++++++++++",
"++++++++++++++++++++++++++.@@@@..+++++++++++++++++++++++++#+++++",
"+++++##++++++++++++++++++..@+@@+.++++++++++++##+++++++++++#+++++",
"+++++++++++++##+++++##++++.@#@@..++++++++++++++++++++++++#+#++++",
"++++++++++++#+++++++++++++.@#@@.+++++++++++++++++++++++++#++++++",
"+++++++++++++++++++++++++..@#@@..+++++++++++++++++++++++#+++++++",
"+++++++++++++++++++++##++..@@@@..++#++++++++++++++++++++++++++++",
"+++##+###++++++++++#######.@@@@.####+++++++++++++++++++++####+++",
"+#########+######+########@@#@@###############+++####+##########",
"#####@###################@@##@@@@@@#####@@###############@@@@@@@",
"@@@@@@@@@@@@@@@@@@@@@@@@@@@#@@@@@@@@@@@@@@@@@@@@@@@@@@@@@@@@@@@@",
"@@@@@@@@@@@@@@@@@@@@@@@@@####@@@@@@@@@@@@@@@@@@@@@@@@@@@@@@@@#@@",
"@###@##@@@@@@@@####@@###@@#@##@@@@@@@@@@@###+@@####@@@@@##@@#@@@",
"@@@@@@@#@#@@@@@@@@@@@@@@@@@@@@@@@@@@@@@@@@@@#+@@@@@@@@@@@@@@@@@@",
"##+.$$$.......#.+##+..##.....#@#......+++##@@#@@@+..++#+###+###+",
"$$$$$$$$$.$$$$+..................+.........#@#@@+.+++#++++++++++",
"$$$$...$.........++...++.....+...++++......#@#@##+.++++..+.+++.+",
"$......+......++++++++++++++++++++++++++++..#+##++..............",
".......+......+++++++++++++++++++++++.+.++$.#+##++..............",
"..............++++++++++++++++++++++++....$$#+##.+..............",
"...............+++++++++++++++++++++++.....$##+#.+..............",
"................++++++++++++++++++++......$$####++..............",
"................+++++++++++++++++++........$####+...............",
".........+.......+++++++++++++++++..........#+##+...............",
".........#........+.++++++++++++...........$#+##+$+.............",
"..................+..+++++++++............$$#+##.$..............",
"..........................................$$#+##+$..............",
"..........................................$$#+#++$........+.....",
".......................................+..$$#++++$..............",
"$$$$...$....+.......+...+++.++...+.+++++++$$#++++.$$..$$...$..+.",
"$........++++++++++..+++++++.++++++++++++++$##++.....$$$$$$$$$$$",
"$$$$$$$$$$$$$$$$.........#+++++#++++++++++###++++.$$$$$$$$.$$$$$",
"$$$$$$$$$$$$$$$..........###################+++...$$$$$$$$$$$$$.",
"$$$$$$$$$$$$$$....#...###############+#######++..$...$.........$",
"++..+++.....+.##@+#####.++#+####+++#+#########+++...$.....$$$$..",
"++++++++++++++$.###########+##########++++.+++++#.......++++####",
"                                                                "};
